<?xml version="1.0" encoding="utf-8"?>
<!-- Generator: Adobe Illustrator 26.0.2, SVG Export Plug-In . SVG Version: 6.00 Build 0)  -->
<svg version="1.1" id="Layer_1" xmlns="http://www.w3.org/2000/svg" xmlns:xlink="http://www.w3.org/1999/xlink" x="0px" y="0px"
	 viewBox="0 0 450.1 450.1" style="enable-background:new 0 0 450.1 450.1;" xml:space="preserve">
<style type="text/css">
	.st0{fill:#FFFFFF;}
</style>
<g id="Layer_2_00000065044358741657023340000000565733433454737559_">
	<g id="Layer_5">
		<path class="st0" d="M225.1,0C100.8,0,0,100.8,0,225.1s100.8,225.1,225.1,225.1s225.1-100.8,225.1-225.1S349.4,0,225.1,0z
			 M219.4,138.4l-29.3,121.3l15.4-7.2l-0.1,61.4c-24.4,0.6-72.6,0.5-79.5,0.3c-43.5-1-84.6-31.8-83.8-78.3c0.4-23.8,14-43,34.4-54.3
			c26.2-14.5,63-15.2,92.3-12.9l1-32.6l49.7-0.2L219.4,138.4z M324.2,314.2c-9,0.2-89.6,0.4-93.4-1.2l16.5-90.9l-16.7,8.7v-95
			l49.7,0.2l1,32.6c29.3-2.3,66.1-1.7,92.3,12.9c20.4,11.3,34,30.6,34.4,54.3C408.8,282.3,367.7,313.2,324.2,314.2z"/>
		<path class="st0" d="M81.7,241.4c0,45.9,58.1,34.1,86.9,34.1v-67.7C140.2,207.8,81.7,197.1,81.7,241.4z"/>
		<path class="st0" d="M281.6,207.8v67.7c28.8,0,86.9,11.8,86.9-34.1C368.4,197.1,309.9,207.8,281.6,207.8z"/>
	</g>
</g>
</svg>
