<?xml version="1.0" encoding="utf-8"?>
<!-- Generator: Adobe Illustrator 26.0.2, SVG Export Plug-In . SVG Version: 6.00 Build 0)  -->
<svg version="1.1" id="Layer_1" xmlns="http://www.w3.org/2000/svg" xmlns:xlink="http://www.w3.org/1999/xlink" x="0px" y="0px"
	 viewBox="0 0 2500 2321" style="enable-background:new 0 0 2500 2321;" xml:space="preserve">
<style type="text/css">
	.st0{fill:#FFFFFF;}
</style>
<path class="st0" d="M711.8,913.3c-20.1-15-40.3-22.5-60.4-22.5h-90.4V1432h90.4c20.1,0,40.3-7.5,60.4-22.5s30.2-37.6,30.2-67.7V981
	C742,950.9,731.9,928.3,711.8,913.3L711.8,913.3z M2183.1,0H316.9C191.6,0,89.8,101.5,89.5,226.9v1867.2
	c0.3,125.4,102.1,226.9,227.4,226.9h1866.1c125.4,0,227.1-101.5,227.4-226.9V226.9C2410.2,101.5,2308.4,0,2183.1,0L2183.1,0z
	 M888.4,1342.8c0,97.5-60.1,245.1-250.5,244.8H397.4V730.4h245.5c183.6,0,245.4,147.4,245.4,244.9L888.4,1342.8z M1410,883.5h-276
	v199h168.7v153.2H1134v199H1410v153.2h-322.1c-57.8,1.5-105.9-44.2-107.3-102V837.7c-1.4-57.8,44.3-105.7,102.1-107.2H1410
	L1410,883.5z M1946.9,1480.8c-68.4,159.3-190.9,127.6-245.8,0l-199.6-750.2h168.7l153.9,589.2l153.2-589.2h168.8L1946.9,1480.8z"/>
</svg>
