<svg width="40" height="41" viewBox="0 0 40 41" fill="none" xmlns="http://www.w3.org/2000/svg">
<path d="M36.3779 7.22012C36.285 6.29659 35.8757 5.43356 35.2194 4.77723C34.5631 4.1209 33.7 3.71161 32.7765 3.6187C32.6753 2.59513 32.185 1.64948 31.4068 0.97693C30.6286 0.304376 29.6219 -0.0437513 28.5944 0.00440524C27.567 0.0525617 26.5973 0.493325 25.8854 1.23572C25.1735 1.97812 24.7738 2.96548 24.7688 3.99403L24.7037 8.08576C22.4205 7.18588 19.9267 6.96132 17.5195 7.43883C15.1123 7.91635 12.8931 9.0758 11.1262 10.7791C9.35942 12.4823 8.11947 14.6576 7.55413 17.0457C6.98879 19.4338 7.12188 21.9342 7.93755 24.2488L3.95646 24.7564C2.93093 24.771 1.94991 25.1777 1.21479 25.8929C0.479675 26.6081 0.0462473 27.5776 0.00349206 28.6023C-0.0392632 29.6271 0.311899 30.6293 0.984882 31.4033C1.65787 32.1772 2.60161 32.6642 3.62235 32.7642C3.71438 33.6877 4.1231 34.5509 4.77915 35.2073C5.4352 35.8638 6.29816 36.273 7.2216 36.3656C7.2944 37.4118 7.77378 38.3879 8.55716 39.0851C9.34054 39.7824 10.3657 40.1453 11.4133 40.0962C12.4608 40.0472 13.4476 39.5901 14.1624 38.8227C14.8772 38.0553 15.2633 37.0387 15.238 35.9903L15.3422 31.9137C17.6254 32.8072 20.1172 33.0261 22.5212 32.5445C24.9253 32.0628 27.1404 30.9009 28.9032 29.1968C30.666 27.4927 31.9023 25.3182 32.4651 22.9318C33.0279 20.5455 32.8935 18.0477 32.0779 15.7355L36.0416 15.2279C37.0673 15.2137 38.0487 14.8074 38.7841 14.0924C39.5196 13.3774 39.9534 12.4079 39.9965 11.383C40.0395 10.3581 39.6885 9.35569 39.0156 8.58151C38.3426 7.80734 37.3988 7.32019 36.3779 7.22012ZM30.0559 15.3689C30.7279 16.8206 31.0758 18.4011 31.0756 20.0008C31.0756 20.2351 31.0756 20.4673 31.0517 20.6994C29.5463 21.373 27.915 21.7191 26.2657 21.7148C24.3028 21.714 22.3712 21.2226 20.6467 20.285C20.6467 20.2655 20.6597 20.246 20.664 20.2243C22.4957 20.1794 24.2933 19.72 25.9219 18.8806C27.5505 18.0411 28.9676 16.8434 30.0668 15.3776L30.0559 15.3689ZM20.9677 8.97527C22.7642 9.12586 24.4955 9.71838 26.0076 10.7C25.8112 12.4876 25.2077 14.2064 24.2434 15.7243C23.2791 17.2423 21.9796 18.5189 20.4449 19.4563L20.4015 19.4107C21.2677 17.8233 21.7673 16.062 21.8638 14.2562C21.9603 12.4504 21.6512 10.646 20.9591 8.97527H20.9677ZM20.0761 20.8296C21.0263 22.385 22.3147 23.7064 23.8456 24.6957C25.3765 25.685 27.1106 26.3168 28.9191 26.5441C28.5891 26.9932 28.2265 27.4174 27.8343 27.8133C26.9427 28.7059 25.9052 29.4396 24.7666 29.9828C23.3328 28.9206 22.1595 27.546 21.3355 25.9631C20.5116 24.3803 20.0587 22.6307 20.011 20.8469L20.0761 20.8296ZM13.6976 29.0738C13.9266 27.3374 14.5408 25.6741 15.4954 24.2056C16.45 22.7372 17.7207 21.5007 19.2148 20.5866L19.2582 20.6322C18.4007 22.2028 17.9023 23.9441 17.7987 25.7306C17.6952 27.517 17.9891 29.3043 18.6594 30.9635C16.8758 30.7531 15.1716 30.1063 13.6976 29.0803V29.0738ZM12.179 12.1645C13.0024 11.3416 13.9497 10.6527 14.9864 10.123C16.3963 11.1868 17.5478 12.5553 18.3551 14.1262C19.1624 15.6972 19.6046 17.4302 19.6487 19.1959L19.5901 19.2155C18.665 17.6978 17.417 16.4025 15.9348 15.4216C14.4525 14.4407 12.7725 13.7983 11.0139 13.54C11.365 13.0526 11.7554 12.5947 12.1811 12.171L12.179 12.1645ZM13.4113 18.3368C15.3741 18.3381 17.3056 18.8295 19.0304 19.7665C19.0233 19.7864 19.0175 19.8067 19.013 19.8273C17.2465 19.87 15.5108 20.2988 13.9277 21.0836C12.3446 21.8684 10.9524 22.9902 9.8489 24.3703C9.1526 22.7443 8.85507 20.9754 8.98109 19.2111C10.3889 18.6391 11.8939 18.3444 13.4134 18.3433L13.4113 18.3368ZM13.5024 35.9642C13.5024 36.5684 13.2624 37.1478 12.8352 37.575C12.408 38.0022 11.8286 38.2422 11.2244 38.2422C10.6202 38.2422 10.0408 38.0022 9.61359 37.575C9.18638 37.1478 8.94638 36.5684 8.94638 35.9642C8.94638 35.8991 8.94638 35.8341 8.94638 35.769C8.96449 35.6153 8.94754 35.4596 8.89681 35.3134C8.84608 35.1672 8.76289 35.0344 8.65349 34.925C8.54408 34.8156 8.41131 34.7324 8.26514 34.6817C8.11897 34.631 7.9632 34.614 7.80954 34.6321C7.7445 34.6354 7.67933 34.6354 7.61429 34.6321C7.01443 34.6287 6.44007 34.3891 6.0157 33.9651C5.59132 33.5411 5.35111 32.967 5.34713 32.3671C5.34377 32.3021 5.34377 32.2369 5.34713 32.1719C5.36438 32.0181 5.34678 31.8624 5.29564 31.7164C5.2445 31.5704 5.16113 31.4377 5.05172 31.3283C4.94231 31.2189 4.80965 31.1355 4.66361 31.0844C4.51757 31.0332 4.36189 31.0156 4.20812 31.0329C4.14327 31.0399 4.0781 31.0435 4.01287 31.0437C3.4087 31.0437 2.82928 30.8037 2.40207 30.3765C1.97486 29.9493 1.73486 29.3699 1.73486 28.7657C1.73486 28.1616 1.97486 27.5821 2.40207 27.1549C2.82928 26.7277 3.4087 26.4877 4.01287 26.4877L8.64481 25.9019C9.24555 27.059 10.0212 28.1164 10.9445 29.0369C11.7463 29.8391 12.6509 30.5315 13.6347 31.0958C13.5942 32.7244 13.5501 34.3494 13.5024 35.9707V35.9642ZM35.9831 13.4922L31.3555 14.078C30.7511 12.922 29.9742 11.8649 29.0514 10.943C28.2595 10.1488 27.3659 9.46303 26.3937 8.90368L26.5044 4.01355C26.5044 3.40939 26.7444 2.82997 27.1716 2.40276C27.5988 1.97555 28.1782 1.73555 28.7824 1.73555C29.3866 1.73555 29.966 1.97555 30.3932 2.40276C30.8204 2.82997 31.0604 3.40939 31.0604 4.01355C31.0604 4.07864 31.0604 4.14373 31.0496 4.20881C31.0319 4.36239 31.0491 4.51797 31.1 4.66394C31.1509 4.80992 31.2341 4.94251 31.3434 5.05182C31.4527 5.16113 31.5853 5.24433 31.7313 5.29521C31.8772 5.34609 32.0328 5.36333 32.1864 5.34565C32.2515 5.34565 32.3166 5.34565 32.3816 5.34565C32.9856 5.34622 33.5647 5.58641 33.9918 6.01349C34.4189 6.44058 34.6591 7.01966 34.6597 7.62365C34.6597 7.69091 34.6597 7.756 34.6597 7.81891C34.6417 7.97245 34.6586 8.12807 34.7092 8.27414C34.7598 8.42021 34.8428 8.55296 34.9519 8.66248C35.061 8.772 35.1934 8.85545 35.3393 8.90661C35.4852 8.95777 35.6407 8.97531 35.7943 8.95792C35.8599 8.951 35.9258 8.94738 35.9917 8.94707C36.5959 8.94707 37.1753 9.18707 37.6025 9.61428C38.0298 10.0415 38.2698 10.6209 38.2698 11.2251C38.2698 11.8292 38.0298 12.4087 37.6025 12.8359C37.1753 13.2631 36.5959 13.5031 35.9917 13.5031L35.9831 13.4922Z" fill="white"/>
</svg>
