<?xml version="1.0" encoding="utf-8"?>
<!-- Generator: Adobe Illustrator 26.1.0, SVG Export Plug-In . SVG Version: 6.00 Build 0)  -->
<svg version="1.1" id="Layer_1" xmlns="http://www.w3.org/2000/svg" xmlns:xlink="http://www.w3.org/1999/xlink" x="0px" y="0px"
	 viewBox="0 0 40 40" style="enable-background:new 0 0 40 40;" xml:space="preserve">
<g>
	<path d="M22.9,17H16v1.4h6.9c0.8,0,1.2-0.1,1.2-0.7C24.1,17.1,23.6,17,22.9,17z"/>
	<path d="M32,0H8C3.6,0,0,3.6,0,8v24c0,4.4,3.6,8,8,8h24c4.4,0,8-3.6,8-8V8C40,3.6,36.4,0,32,0z M30.2,27h-5.8v-3.4
		c0-1-0.6-1.4-1.7-1.4H16V27h-5.8V12.8h13.7c3.4,0,6.1,0.7,6.1,3.9c0,1.9-1.1,2.8-2.4,3.2c1.5,0.4,2.6,1.7,2.6,3.6V27z"/>
</g>
</svg>
